<svg width="27" height="27" viewBox="0 0 27 27" fill="none" xmlns="http://www.w3.org/2000/svg">
<path d="M20.7763 21.2763C21.5022 21.2763 22.1983 21.5647 22.7116 22.0779C23.2248 22.5912 23.5132 23.2873 23.5132 24.0132C23.5132 24.739 23.2248 25.4351 22.7116 25.9484C22.1983 26.4617 21.5022 26.75 20.7763 26.75C20.0505 26.75 19.3543 26.4617 18.8411 25.9484C18.3278 25.4351 18.0395 24.739 18.0395 24.0132C18.0395 23.2873 18.3278 22.5912 18.8411 22.0779C19.3543 21.5647 20.0505 21.2763 20.7763 21.2763ZM20.7763 22.6447C20.4134 22.6447 20.0653 22.7889 19.8087 23.0455C19.5521 23.3022 19.4079 23.6502 19.4079 24.0132C19.4079 24.3761 19.5521 24.7241 19.8087 24.9808C20.0653 25.2374 20.4134 25.3816 20.7763 25.3816C21.1392 25.3816 21.4873 25.2374 21.7439 24.9808C22.0006 24.7241 22.1447 24.3761 22.1447 24.0132C22.1447 23.6502 22.0006 23.3022 21.7439 23.0455C21.4873 22.7889 21.1392 22.6447 20.7763 22.6447ZM8.46053 21.2763C9.18638 21.2763 9.88251 21.5647 10.3958 22.0779C10.909 22.5912 11.1974 23.2873 11.1974 24.0132C11.1974 24.739 10.909 25.4351 10.3958 25.9484C9.88251 26.4617 9.18638 26.75 8.46053 26.75C7.73467 26.75 7.03854 26.4617 6.52529 25.9484C6.01203 25.4351 5.72368 24.739 5.72368 24.0132C5.72368 23.2873 6.01203 22.5912 6.52529 22.0779C7.03854 21.5647 7.73467 21.2763 8.46053 21.2763ZM8.46053 22.6447C8.0976 22.6447 7.74954 22.7889 7.49291 23.0455C7.23628 23.3022 7.09211 23.6502 7.09211 24.0132C7.09211 24.3761 7.23628 24.7241 7.49291 24.9808C7.74954 25.2374 8.0976 25.3816 8.46053 25.3816C8.82345 25.3816 9.17152 25.2374 9.42815 24.9808C9.68477 24.7241 9.82895 24.3761 9.82895 24.0132C9.82895 23.6502 9.68477 23.3022 9.42815 23.0455C9.17152 22.7889 8.82345 22.6447 8.46053 22.6447ZM23.5132 4.85526H4.72474L8.21421 13.0658H19.4079C19.8595 13.0658 20.2563 12.8468 20.5026 12.5184L24.6079 7.04474C24.7858 6.81211 24.8816 6.52474 24.8816 6.22368C24.8816 5.86076 24.7374 5.51269 24.4808 5.25606C24.2241 4.99944 23.8761 4.85526 23.5132 4.85526ZM19.4079 14.4342H8.28263L7.22895 16.5689L7.09211 17.1711C7.09211 17.534 7.23628 17.882 7.49291 18.1387C7.74954 18.3953 8.0976 18.5395 8.46053 18.5395H23.5132V19.9079H8.46053C7.73467 19.9079 7.03854 19.6195 6.52529 19.1063C6.01203 18.593 5.72368 17.8969 5.72368 17.1711C5.72328 16.7067 5.841 16.25 6.06579 15.8437L7.05105 13.8321L2.08368 2.11842H0.25V0.75H2.98684L4.15 3.48684H23.5132C24.239 3.48684 24.9351 3.77519 25.4484 4.28844C25.9617 4.8017 26.25 5.49783 26.25 6.22368C26.25 6.9079 26.0174 7.48263 25.6342 7.9479L21.6521 13.2711C21.1595 13.9689 20.3384 14.4342 19.4079 14.4342Z" fill="white"/>
</svg>
