<svg width="119" height="119" viewBox="0 0 119 119" fill="none" xmlns="http://www.w3.org/2000/svg">
<circle cx="59.5" cy="59.5" r="59" fill="#F9F9F9" stroke="#FF0101"/>
<path d="M32.8012 28.1485V26.8136C32.4472 26.8136 32.1077 26.9542 31.8573 27.2046C31.607 27.4549 31.4663 27.7945 31.4663 28.1485H32.8012ZM62.1698 28.1485H63.5048C63.5048 27.7945 63.3641 27.4549 63.1138 27.2046C62.8634 26.9542 62.5239 26.8136 62.1698 26.8136V28.1485ZM62.1698 44.1678V42.8328C61.8158 42.8328 61.4762 42.9735 61.2259 43.2238C60.9755 43.4742 60.8349 43.8137 60.8349 44.1678H62.1698ZM32.8012 29.4835H62.1698V26.8136H32.8012V29.4835ZM60.8349 28.1485V70.8665H63.5048V28.1485H60.8349ZM34.1362 65.5267V28.1485H31.4663V65.5267H34.1362ZM62.1698 45.5027H75.5192V42.8328H62.1698V45.5027ZM84.8638 54.8473V65.5267H87.5336V54.8473H84.8638ZM63.5048 70.8665V44.1678H60.8349V70.8665H63.5048ZM78.3493 73.6965C77.5984 74.4465 76.5805 74.8678 75.5192 74.8678C74.4579 74.8678 73.44 74.4465 72.6891 73.6965L70.7989 75.5868C71.4187 76.2068 72.1546 76.6986 72.9645 77.0342C73.7744 77.3697 74.6425 77.5424 75.5192 77.5424C76.3959 77.5424 77.264 77.3697 78.0739 77.0342C78.8838 76.6986 79.6197 76.2068 80.2395 75.5868L78.3519 73.6992L78.3493 73.6965ZM72.6891 68.0364C73.44 67.2865 74.4579 66.8652 75.5192 66.8652C76.5805 66.8652 77.5984 67.2865 78.3493 68.0364L80.2395 66.1462C79.6197 65.5262 78.8838 65.0344 78.0739 64.6988C77.264 64.3633 76.3959 64.1906 75.5192 64.1906C74.6425 64.1906 73.7744 64.3633 72.9645 64.6988C72.1546 65.0344 71.4187 65.5262 70.7989 66.1462L72.6865 68.0338L72.6891 68.0364ZM46.3108 73.6965C45.5599 74.4465 44.542 74.8678 43.4807 74.8678C42.4195 74.8678 41.4016 74.4465 40.6507 73.6965L38.7604 75.5868C39.3802 76.2068 40.1161 76.6986 40.926 77.0342C41.736 77.3697 42.6041 77.5424 43.4807 77.5424C44.3574 77.5424 45.2255 77.3697 46.0354 77.0342C46.8454 76.6986 47.5812 76.2068 48.2011 75.5868L46.3135 73.6992L46.3108 73.6965ZM40.6507 68.0364C41.4016 67.2865 42.4195 66.8652 43.4807 66.8652C44.542 66.8652 45.5599 67.2865 46.3108 68.0364L48.2011 66.1462C47.5812 65.5262 46.8454 65.0344 46.0354 64.6988C45.2255 64.3633 44.3574 64.1906 43.4807 64.1906C42.6041 64.1906 41.736 64.3633 40.926 64.6988C40.1161 65.0344 39.3802 65.5262 38.7604 66.1462L40.648 68.0338L40.6507 68.0364ZM78.3493 68.0364C79.1342 68.816 79.524 69.8386 79.524 70.8665H82.1939C82.1939 69.1604 81.5424 67.4491 80.2395 66.1462L78.3519 68.0338L78.3493 68.0364ZM79.524 70.8665C79.524 71.8944 79.1342 72.9169 78.3493 73.6965L80.2395 75.5868C80.86 74.9674 81.352 74.2316 81.6874 73.4215C82.0228 72.6115 82.1949 71.7432 82.1939 70.8665H79.524ZM70.1795 69.5316H62.1698V72.2014H70.1795V69.5316ZM72.6891 73.6965C72.3164 73.3256 72.0208 72.8845 71.8192 72.3988C71.6176 71.9131 71.514 71.3924 71.5144 70.8665H68.8445C68.8445 72.5725 69.496 74.2839 70.7989 75.5868L72.6865 73.6992L72.6891 73.6965ZM71.5144 70.8665C71.5144 69.8386 71.9042 68.816 72.6891 68.0364L70.7989 66.1462C70.1784 66.7656 69.6863 67.5014 69.351 68.3114C69.0156 69.1215 68.8435 69.9898 68.8445 70.8665H71.5144ZM40.6507 73.6965C40.278 73.3256 39.9823 72.8845 39.7807 72.3988C39.5791 71.9131 39.4755 71.3924 39.4759 70.8665H36.8061C36.8061 72.5725 37.4575 74.2839 38.7604 75.5868L40.648 73.6992L40.6507 73.6965ZM39.4759 70.8665C39.4759 69.8386 39.8657 68.816 40.6507 68.0364L38.7604 66.1462C38.1399 66.7656 37.6479 67.5014 37.3125 68.3114C36.9771 69.1215 36.805 69.9898 36.8061 70.8665H39.4759ZM62.1698 69.5316H48.8205V72.2014H62.1698V69.5316ZM46.3108 68.0364C47.0957 68.816 47.4855 69.8386 47.4855 70.8665H50.1554C50.1554 69.1604 49.504 67.4491 48.2011 66.1462L46.3135 68.0338L46.3108 68.0364ZM47.4855 70.8665C47.4855 71.8944 47.0957 72.9169 46.3108 73.6965L48.2011 75.5868C48.8215 74.9674 49.3136 74.2316 49.649 73.4215C49.9843 72.6115 50.1565 71.7432 50.1554 70.8665H47.4855ZM84.8638 65.5267C84.8638 66.5889 84.4418 67.6075 83.6908 68.3586C82.9397 69.1096 81.9211 69.5316 80.8589 69.5316V72.2014C82.6292 72.2014 84.3269 71.4982 85.5787 70.2465C86.8304 68.9947 87.5336 67.297 87.5336 65.5267H84.8638ZM75.5192 45.5027C77.9975 45.5027 80.3744 46.4872 82.1268 48.2397C83.8792 49.9921 84.8638 52.3689 84.8638 54.8473H87.5336C87.5336 51.6608 86.2678 48.6049 84.0147 46.3518C81.7615 44.0986 78.7056 42.8328 75.5192 42.8328V45.5027ZM31.4663 65.5267C31.4663 67.297 32.1695 68.9947 33.4213 70.2465C34.673 71.4982 36.3708 72.2014 38.141 72.2014V69.5316C37.0788 69.5316 36.0602 69.1096 35.3092 68.3586C34.5581 67.6075 34.1362 66.5889 34.1362 65.5267H31.4663Z" fill="#FF0000"/>
<path d="M32.8012 41.4979H40.8109M32.8012 52.1774H46.1506" stroke="#FF0000" stroke-linecap="round" stroke-linejoin="round"/>
<path d="M34.4617 101.047H31.9852L32.0008 99.2184H34.4617C35.0763 99.2184 35.5945 99.0804 36.0164 98.8043C36.4383 98.5231 36.756 98.1142 36.9695 97.5778C37.1883 97.0413 37.2977 96.3929 37.2977 95.6324V95.0778C37.2977 94.4944 37.2352 93.9814 37.1102 93.5387C36.9904 93.096 36.8107 92.7236 36.5711 92.4215C36.3315 92.1194 36.0373 91.8929 35.6883 91.7418C35.3393 91.5856 34.9383 91.5074 34.4852 91.5074H31.9383V89.6715H34.4852C35.2456 89.6715 35.9409 89.8017 36.5711 90.0621C37.2065 90.3173 37.756 90.6845 38.2195 91.1637C38.6831 91.6429 39.0399 92.2158 39.2899 92.8824C39.5451 93.5439 39.6727 94.2809 39.6727 95.0934V95.6324C39.6727 96.4397 39.5451 97.1767 39.2899 97.8434C39.0399 98.5101 38.6831 99.083 38.2195 99.5621C37.7612 100.036 37.2117 100.403 36.5711 100.664C35.9357 100.919 35.2326 101.047 34.4617 101.047ZM33.3133 89.6715V101.047H30.9695V89.6715H33.3133ZM45.1258 101.203C44.4695 101.203 43.881 101.099 43.3602 100.89C42.8393 100.677 42.3966 100.382 42.032 100.007C41.6727 99.6324 41.3966 99.1976 41.2039 98.7028C41.0112 98.2028 40.9149 97.6715 40.9149 97.109V96.7965C40.9149 96.1559 41.006 95.5699 41.1883 95.0387C41.3706 94.5074 41.631 94.0465 41.9695 93.6559C42.3133 93.2653 42.73 92.9658 43.2195 92.7574C43.7091 92.5439 44.2612 92.4371 44.8758 92.4371C45.4748 92.4371 46.006 92.5361 46.4695 92.734C46.9331 92.9319 47.3211 93.2132 47.6336 93.5778C47.9513 93.9423 48.1909 94.3798 48.3524 94.8903C48.5138 95.3955 48.5945 95.958 48.5945 96.5778V97.5153H41.8758V96.0153H46.3836V95.8434C46.3836 95.5309 46.3263 95.2522 46.2117 95.0074C46.1024 94.7574 45.9357 94.5595 45.7117 94.4137C45.4878 94.2679 45.2013 94.1949 44.8524 94.1949C44.5555 94.1949 44.3003 94.2601 44.0867 94.3903C43.8732 94.5205 43.6987 94.7028 43.5633 94.9371C43.4331 95.1715 43.3341 95.4476 43.2664 95.7653C43.2039 96.0778 43.1727 96.4215 43.1727 96.7965V97.109C43.1727 97.4476 43.2195 97.7601 43.3133 98.0465C43.4123 98.333 43.5503 98.5804 43.7274 98.7887C43.9096 98.997 44.1284 99.1585 44.3836 99.2731C44.644 99.3877 44.9383 99.4449 45.2664 99.4449C45.6727 99.4449 46.0503 99.3668 46.3992 99.2106C46.7534 99.0491 47.0581 98.8069 47.3133 98.484L48.407 99.6715C48.23 99.9267 47.9878 100.172 47.6805 100.406C47.3784 100.64 47.0138 100.833 46.5867 100.984C46.1596 101.13 45.6727 101.203 45.1258 101.203ZM52.2508 89.0465V101.047H49.993V89.0465H52.2508ZM56.4852 92.5934V101.047H54.2274V92.5934H56.4852ZM54.0867 90.3903C54.0867 90.0621 54.2013 89.7913 54.4305 89.5778C54.6596 89.3642 54.9669 89.2574 55.3524 89.2574C55.7326 89.2574 56.0373 89.3642 56.2664 89.5778C56.5008 89.7913 56.618 90.0621 56.618 90.3903C56.618 90.7184 56.5008 90.9892 56.2664 91.2028C56.0373 91.4163 55.7326 91.5231 55.3524 91.5231C54.9669 91.5231 54.6596 91.4163 54.4305 91.2028C54.2013 90.9892 54.0867 90.7184 54.0867 90.3903ZM61.2195 99.4059L63.0945 92.5934H65.4461L62.5945 101.047H61.1727L61.2195 99.4059ZM59.9305 92.5934L61.8133 99.4137L61.8524 101.047H60.4227L57.5711 92.5934H59.9305ZM70.2352 101.203C69.5789 101.203 68.9904 101.099 68.4695 100.89C67.9487 100.677 67.506 100.382 67.1414 100.007C66.782 99.6324 66.506 99.1976 66.3133 98.7028C66.1206 98.2028 66.0242 97.6715 66.0242 97.109V96.7965C66.0242 96.1559 66.1154 95.5699 66.2977 95.0387C66.48 94.5074 66.7404 94.0465 67.0789 93.6559C67.4227 93.2653 67.8393 92.9658 68.3289 92.7574C68.8185 92.5439 69.3706 92.4371 69.9852 92.4371C70.5841 92.4371 71.1154 92.5361 71.5789 92.734C72.0425 92.9319 72.4305 93.2132 72.743 93.5778C73.0607 93.9423 73.3003 94.3798 73.4617 94.8903C73.6232 95.3955 73.7039 95.958 73.7039 96.5778V97.5153H66.9852V96.0153H71.493V95.8434C71.493 95.5309 71.4357 95.2522 71.3211 95.0074C71.2117 94.7574 71.0451 94.5595 70.8211 94.4137C70.5971 94.2679 70.3107 94.1949 69.9617 94.1949C69.6649 94.1949 69.4096 94.2601 69.1961 94.3903C68.9826 94.5205 68.8081 94.7028 68.6727 94.9371C68.5425 95.1715 68.4435 95.4476 68.3758 95.7653C68.3133 96.0778 68.282 96.4215 68.282 96.7965V97.109C68.282 97.4476 68.3289 97.7601 68.4227 98.0465C68.5216 98.333 68.6596 98.5804 68.8367 98.7887C69.019 98.997 69.2378 99.1585 69.493 99.2731C69.7534 99.3877 70.0477 99.4449 70.3758 99.4449C70.782 99.4449 71.1596 99.3668 71.5086 99.2106C71.8628 99.0491 72.1675 98.8069 72.4227 98.484L73.5164 99.6715C73.3393 99.9267 73.0971 100.172 72.7899 100.406C72.4878 100.64 72.1232 100.833 71.6961 100.984C71.269 101.13 70.782 101.203 70.2352 101.203ZM77.2352 94.4371V101.047H74.9852V92.5934H77.1024L77.2352 94.4371ZM79.782 92.5387L79.743 94.6246C79.6336 94.609 79.5008 94.596 79.3445 94.5856C79.1935 94.5699 79.0555 94.5621 78.9305 94.5621C78.6128 94.5621 78.3367 94.6038 78.1024 94.6871C77.8732 94.7653 77.6805 94.8824 77.5242 95.0387C77.3732 95.1949 77.2586 95.3851 77.1805 95.609C77.1076 95.833 77.0659 96.0882 77.0555 96.3746L76.6024 96.234C76.6024 95.6871 76.657 95.1845 76.7664 94.7262C76.8758 94.2627 77.0346 93.859 77.243 93.5153C77.4565 93.1715 77.7169 92.9059 78.0242 92.7184C78.3315 92.5309 78.6831 92.4371 79.0789 92.4371C79.2039 92.4371 79.3315 92.4476 79.4617 92.4684C79.5919 92.484 79.6987 92.5074 79.782 92.5387ZM83.493 100.093L85.7352 92.5934H88.1492L84.7508 102.32C84.6779 102.533 84.5789 102.763 84.4539 103.007C84.3341 103.252 84.1701 103.484 83.9617 103.703C83.7586 103.927 83.5008 104.109 83.1883 104.25C82.881 104.39 82.5034 104.461 82.0555 104.461C81.8419 104.461 81.6675 104.448 81.532 104.422C81.3966 104.395 81.2352 104.359 81.0477 104.312V102.664C81.105 102.664 81.1649 102.664 81.2274 102.664C81.2899 102.669 81.3498 102.672 81.407 102.672C81.7039 102.672 81.9461 102.638 82.1336 102.57C82.3211 102.502 82.4721 102.398 82.5867 102.257C82.7013 102.122 82.7925 101.945 82.8602 101.726L83.493 100.093ZM82.5555 92.5934L84.3914 98.7184L84.7117 101.101L83.1805 101.265L80.1414 92.5934H82.5555Z" fill="#FF0000"/>
</svg>
