<svg width="28" height="28" viewBox="0 0 28 28" fill="none" xmlns="http://www.w3.org/2000/svg">
<path d="M3.02145 14.4085L3.02155 14.4086C3.84877 15.6228 4.96951 17.003 6.38926 18.5504C7.81134 20.1003 9.61381 21.9474 11.7982 24.0925C11.7984 24.0927 11.7985 24.0928 11.7987 24.093L13.3333 25.5926L14.868 24.093C14.8681 24.0928 14.8683 24.0927 14.8684 24.0925C17.0529 21.9474 18.8553 20.1003 20.2774 18.5504C21.6971 17.003 22.8179 15.6228 23.6451 14.4087L3.02145 14.4085ZM3.02145 14.4085C2.19408 13.195 1.62996 12.0992 1.31356 11.119C0.994074 10.1292 0.83418 9.11831 0.833336 8.08437C0.833379 5.97634 1.47763 4.24727 2.74926 2.8613C4.01862 1.4778 5.58535 0.791664 7.48334 0.791664C8.52981 0.791664 9.52457 1.03216 10.4736 1.51634C11.4237 2.00107 12.2451 2.68483 12.9391 3.57463L13.3333 4.08019M3.02145 14.4085L13.3333 4.08019M13.3333 4.08019L13.7276 3.57463M13.3333 4.08019L13.7276 3.57463M13.7276 3.57463C14.4215 2.68483 15.2429 2.00107 16.1931 1.51634M13.7276 3.57463L16.1931 1.51634M16.1931 1.51634C17.1421 1.03216 18.1369 0.791664 19.1833 0.791664M16.1931 1.51634L19.1833 0.791664M19.1833 0.791664C21.0813 0.791664 22.648 1.4778 23.9174 2.8613M19.1833 0.791664L23.9174 2.8613M23.9174 2.8613C25.1891 4.24732 25.8333 5.97646 25.8333 8.08458M23.9174 2.8613L25.8333 8.08458M25.8333 8.08458C25.8333 9.11831 25.6735 10.129 25.3532 11.1186M25.8333 8.08458L25.3532 11.1186M25.3532 11.1186C25.0359 12.0991 24.4717 13.1951 23.6451 14.4086L25.3532 11.1186Z" stroke="white"/>
</svg>
