<svg width="28" height="26" viewBox="0 0 28 26" fill="none" xmlns="http://www.w3.org/2000/svg">
<g filter="url(#filter0_d_220_4)">
<path d="M25.2625 10.2644C25.2625 10.0829 25.1904 9.90889 25.0621 9.78057C24.9338 9.65226 24.7598 9.58017 24.5783 9.58017C24.3969 9.58017 24.2228 9.65226 24.0945 9.78057C23.9662 9.90889 23.8941 10.0829 23.8941 10.2644H25.2625ZM6.10585 10.2644C6.10585 10.0829 6.03377 9.90889 5.90547 9.78057C5.77716 9.65226 5.60314 9.58017 5.42169 9.58017C5.24024 9.58017 5.06622 9.65226 4.93791 9.78057C4.80961 9.90889 4.73752 10.0829 4.73752 10.2644H6.10585ZM26.8306 13.4856C26.959 13.6141 27.1333 13.6863 27.315 13.6863C27.4967 13.6863 27.6709 13.6141 27.7994 13.4856C27.9278 13.3572 28 13.1829 28 13.0012C28 12.8195 27.9278 12.6453 27.7994 12.5168L26.8306 13.4856ZM15 0.685434L15.4844 0.201013C15.4208 0.137294 15.3453 0.0867411 15.2622 0.0522481C15.1791 0.0177551 15.09 0 15 0C14.91 0 14.8209 0.0177551 14.7378 0.0522481C14.6547 0.0867411 14.5792 0.137294 14.5156 0.201013L15 0.685434ZM2.20064 12.5168C2.07217 12.6453 2 12.8195 2 13.0012C2 13.1829 2.07217 13.3572 2.20064 13.4856C2.32911 13.6141 2.50335 13.6863 2.68503 13.6863C2.86671 13.6863 3.04095 13.6141 3.16942 13.4856L2.20064 12.5168ZM8.15835 26.0012H21.8417V24.6328H8.15835V26.0012ZM25.2625 22.5802V10.2644H23.8941V22.5802H25.2625ZM6.10585 22.5802V10.2644H4.73752V22.5802H6.10585ZM27.7994 12.5168L15.4844 0.201013L14.5156 1.16986L26.8306 13.4856L27.7994 12.5168ZM14.5156 0.201013L2.20064 12.5168L3.16942 13.4856L15.4844 1.16986L14.5156 0.201013ZM21.8417 26.0012C22.7489 26.0012 23.619 25.6408 24.2605 24.9992C24.9021 24.3577 25.2625 23.4875 25.2625 22.5802H23.8941C23.8941 23.1246 23.6779 23.6467 23.293 24.0316C22.9081 24.4165 22.386 24.6328 21.8417 24.6328V26.0012ZM8.15835 24.6328C7.61399 24.6328 7.09193 24.4165 6.70702 24.0316C6.3221 23.6467 6.10585 23.1246 6.10585 22.5802H4.73752C4.73752 23.4875 5.09793 24.3577 5.73946 24.9992C6.38099 25.6408 7.25109 26.0012 8.15835 26.0012V24.6328Z" fill="#3FA636"/>
</g>
<defs>
<filter id="filter0_d_220_4" x="-2" y="0" width="34" height="34.0012" filterUnits="userSpaceOnUse" color-interpolation-filters="sRGB">
<feFlood flood-opacity="0" result="BackgroundImageFix"/>
<feColorMatrix in="SourceAlpha" type="matrix" values="0 0 0 0 0 0 0 0 0 0 0 0 0 0 0 0 0 0 127 0" result="hardAlpha"/>
<feOffset dy="4"/>
<feGaussianBlur stdDeviation="2"/>
<feComposite in2="hardAlpha" operator="out"/>
<feColorMatrix type="matrix" values="0 0 0 0 0 0 0 0 0 0 0 0 0 0 0 0 0 0 0.25 0"/>
<feBlend mode="normal" in2="BackgroundImageFix" result="effect1_dropShadow_220_4"/>
<feBlend mode="normal" in="SourceGraphic" in2="effect1_dropShadow_220_4" result="shape"/>
</filter>
</defs>
</svg>
