<svg width="28" height="28" viewBox="0 0 28 28" fill="none" xmlns="http://www.w3.org/2000/svg">
<path d="M18.9929 13.3486C19.3334 13.3486 19.66 13.2201 19.9008 12.9914C20.1415 12.7627 20.2768 12.4525 20.2768 12.1291C20.2768 11.8056 20.1415 11.4955 19.9008 11.2667C19.66 11.038 19.3334 10.9096 18.9929 10.9096C18.6524 10.9096 18.3259 11.038 18.0851 11.2667C17.8443 11.4955 17.709 11.8056 17.709 12.1291C17.709 12.4525 17.8443 12.7627 18.0851 12.9914C18.3259 13.2201 18.6524 13.3486 18.9929 13.3486ZM12.5735 12.1291C12.5735 12.4525 12.4382 12.7627 12.1974 12.9914C11.9567 13.2201 11.6301 13.3486 11.2896 13.3486C10.9491 13.3486 10.6225 13.2201 10.3817 12.9914C10.141 12.7627 10.0057 12.4525 10.0057 12.1291C10.0057 11.8056 10.141 11.4955 10.3817 11.2667C10.6225 11.038 10.9491 10.9096 11.2896 10.9096C11.6301 10.9096 11.9567 11.038 12.1974 11.2667C12.4382 11.4955 12.5735 11.8056 12.5735 12.1291Z" fill="white"/>
<path fill-rule="evenodd" clip-rule="evenodd" d="M10.3267 6.36809V6.03151C10.3267 4.81863 10.8339 3.65542 11.7368 2.79779C12.6397 1.94015 13.8643 1.45834 15.1413 1.45834C16.4182 1.45834 17.6428 1.94015 18.5457 2.79779C19.4486 3.65542 19.9558 4.81863 19.9558 6.03151V6.36809C20.8006 6.39248 21.5543 6.4376 22.2219 6.51687C23.7639 6.70224 25.0131 7.09004 25.9773 7.98517C26.2983 8.28395 26.5846 8.61443 26.8298 8.97297C27.5642 10.0461 27.7208 11.2852 27.6091 12.7583C27.4987 14.1998 27.1187 16.0096 26.6346 18.3059L26.609 18.4218C26.2751 20.0157 26.0081 21.2839 25.6769 22.2827C25.3366 23.3096 24.9014 24.1413 24.1747 24.8144C23.9243 25.0461 23.6547 25.2559 23.3659 25.4437C22.5288 25.9888 21.5851 26.2303 20.4578 26.3461C19.3627 26.4583 18.0018 26.4583 16.2903 26.4583H13.9922C12.2808 26.4583 10.9198 26.4583 9.82467 26.3461C8.69742 26.2303 7.75376 25.9888 6.91666 25.4437C6.62856 25.2563 6.35795 25.0458 6.10781 24.8144C5.38113 24.1413 4.94589 23.3096 4.60566 22.2827C4.2757 21.2839 4.00865 20.0157 3.67227 18.4218L3.64788 18.3059C3.16514 16.0096 2.78382 14.1998 2.67469 12.7583C2.56171 11.2852 2.71834 10.0461 3.45273 8.97297C3.69769 8.61486 3.9836 8.28358 4.30523 7.98517C5.27071 7.09004 6.51866 6.70224 8.06061 6.51687C8.72823 6.4376 9.48187 6.39248 10.3267 6.36809ZM12.2525 6.03151C12.2525 5.30378 12.5569 4.60586 13.0986 4.09127C13.6403 3.57669 14.3751 3.2876 15.1413 3.2876C15.9074 3.2876 16.6422 3.57669 17.1839 4.09127C17.7257 4.60586 18.03 5.30378 18.03 6.03151V6.33882C17.4856 6.33638 16.9105 6.33638 16.3032 6.33638H13.9793C13.3721 6.33638 12.7982 6.33638 12.2525 6.33882V6.03151ZM5.65075 9.2937C6.18356 8.7998 6.94491 8.49492 8.30198 8.33151C9.67574 8.16687 11.4989 8.16565 14.0487 8.16565H16.2351C18.7849 8.16565 20.6055 8.16687 21.9805 8.33151C23.3376 8.49492 24.099 8.7998 24.6318 9.2937C24.8513 9.49736 25.0465 9.72419 25.2147 9.96931C25.6204 10.562 25.786 11.3315 25.6884 12.6278C25.5883 13.94 25.2326 15.6364 24.7332 18.012C24.384 19.6693 24.1362 20.8413 23.8396 21.7327C23.5507 22.6071 23.2426 23.123 22.8305 23.5047C22.6597 23.6629 22.475 23.8069 22.2784 23.9352C21.8034 24.2437 21.2102 24.4291 20.2511 24.5278C19.2715 24.6278 18.0133 24.6291 16.2338 24.6291H14.05C12.2705 24.6291 11.0123 24.6278 10.0314 24.5278C9.0736 24.4303 8.48172 24.2437 8.00668 23.9352C7.8096 23.8065 7.62447 23.6621 7.45333 23.5035C7.0412 23.1217 6.73435 22.6071 6.44419 21.7327C6.14889 20.84 5.89982 19.6693 5.55189 18.012C5.05117 15.6364 4.69553 13.9388 4.59667 12.6266C4.49781 11.3315 4.66343 10.562 5.06914 9.96931C5.23664 9.7244 5.43212 9.49782 5.65203 9.2937H5.65075Z" fill="white"/>
</svg>
