<svg width="119" height="119" viewBox="0 0 119 119" fill="none" xmlns="http://www.w3.org/2000/svg">
<circle cx="59.5" cy="59.5" r="59" fill="#F9F9F9" stroke="#FF0000"/>
<path d="M29.7499 53.4434H89.2498M85.8934 53.4434C85.8934 38.8659 74.0773 27.0498 59.4999 27.0498C44.9224 27.0498 33.1063 38.8674 33.1063 53.4434" stroke="#FF0000" stroke-width="3" stroke-linecap="round" stroke-linejoin="round"/>
<path d="M48.5061 33.4606C45.7791 35.2396 43.5254 37.6546 41.9387 40.4977C40.3521 43.3409 39.4802 46.527 39.398 49.7819M59.4999 27.0499V23.6019M60.934 63.6958C68.8642 63.5996 69.8803 63.2686 84.5432 59.546C85.4663 59.3126 86.1513 59.7855 86.3527 60.3226C86.5586 60.8718 86.4747 61.8452 85.2222 62.1701C82.7506 62.8109 67.3416 69.9204 63.8327 69.9204C60.3237 69.9204 50.1019 69.1575 46.2573 69.1575C42.4127 69.1575 37.9273 71.5986 37.9273 71.5986C34.8455 68.7304 32.8927 63.9704 32.374 58.8137H70.454C72.0254 58.8137 72.5288 61.0106 71.1863 61.6209C69.1953 62.5256 65.816 63.6958 60.934 63.6958Z" stroke="#FF0000" stroke-width="3" stroke-linecap="round" stroke-linejoin="round"/>
<path d="M39.105 97.1987H36.3877V95.4849H39.105C39.5249 95.4849 39.8667 95.4165 40.1304 95.2798C40.394 95.1382 40.5869 94.9429 40.709 94.6938C40.8311 94.4448 40.8921 94.1641 40.8921 93.8516C40.8921 93.5342 40.8311 93.2388 40.709 92.9653C40.5869 92.6919 40.394 92.4722 40.1304 92.3062C39.8667 92.1401 39.5249 92.0571 39.105 92.0571H37.1494V101H34.9521V90.3359H39.105C39.9399 90.3359 40.6553 90.4873 41.251 90.79C41.8516 91.0879 42.3105 91.5005 42.6279 92.0278C42.9453 92.5552 43.104 93.1582 43.104 93.8369C43.104 94.5254 42.9453 95.1211 42.6279 95.624C42.3105 96.127 41.8516 96.5151 41.251 96.7886C40.6553 97.062 39.9399 97.1987 39.105 97.1987ZM46.7148 93.0752V101H44.5981V93.0752H46.7148ZM44.4663 91.0098C44.4663 90.7021 44.5737 90.4482 44.7886 90.248C45.0034 90.0479 45.2915 89.9478 45.6528 89.9478C46.0093 89.9478 46.2949 90.0479 46.5098 90.248C46.7295 90.4482 46.8394 90.7021 46.8394 91.0098C46.8394 91.3174 46.7295 91.5713 46.5098 91.7715C46.2949 91.9717 46.0093 92.0718 45.6528 92.0718C45.2915 92.0718 45.0034 91.9717 44.7886 91.7715C44.5737 91.5713 44.4663 91.3174 44.4663 91.0098ZM51.7319 99.4985C51.9907 99.4985 52.2202 99.4497 52.4204 99.3521C52.6206 99.2495 52.7769 99.1079 52.8892 98.9272C53.0063 98.7417 53.0674 98.5244 53.0723 98.2754H55.0571C55.0522 98.832 54.9033 99.3276 54.6104 99.7622C54.3174 100.192 53.9243 100.531 53.4312 100.78C52.938 101.024 52.3862 101.146 51.7759 101.146C51.1606 101.146 50.6235 101.044 50.1646 100.839C49.7104 100.634 49.332 100.351 49.0293 99.9893C48.7266 99.623 48.4995 99.1982 48.3481 98.7148C48.1968 98.2266 48.1211 97.7041 48.1211 97.1475V96.9351C48.1211 96.3735 48.1968 95.8511 48.3481 95.3677C48.4995 94.8794 48.7266 94.4546 49.0293 94.0933C49.332 93.7271 49.7104 93.4414 50.1646 93.2363C50.6187 93.0312 51.1509 92.9287 51.7612 92.9287C52.4106 92.9287 52.9795 93.0532 53.4678 93.3022C53.9609 93.5513 54.3467 93.9077 54.625 94.3716C54.9082 94.8306 55.0522 95.375 55.0571 96.0049H53.0723C53.0674 95.7412 53.0112 95.502 52.9038 95.2871C52.8013 95.0723 52.6499 94.9014 52.4497 94.7744C52.2544 94.6426 52.0127 94.5767 51.7246 94.5767C51.417 94.5767 51.1655 94.6426 50.9702 94.7744C50.7749 94.9014 50.6235 95.0771 50.5161 95.3018C50.4087 95.5215 50.333 95.7729 50.2891 96.0562C50.25 96.3345 50.2305 96.6274 50.2305 96.9351V97.1475C50.2305 97.4551 50.25 97.7505 50.2891 98.0337C50.3281 98.3169 50.4014 98.5684 50.5088 98.7881C50.6211 99.0078 50.7749 99.1812 50.9702 99.3081C51.1655 99.4351 51.4194 99.4985 51.7319 99.4985ZM58.3896 89.7427V101H56.2803V89.7427H58.3896ZM63.3848 93.0752L59.9424 97.001L58.0967 98.8687L57.3276 97.3452L58.7925 95.4849L60.8506 93.0752H63.3848ZM61.1948 101L58.8511 97.3379L60.3086 96.0635L63.6265 101H61.1948ZM74.0488 90.3359H76.2388V97.3818C76.2388 98.2021 76.063 98.8931 75.7114 99.4546C75.3647 100.016 74.8838 100.438 74.2686 100.722C73.6582 101.005 72.9551 101.146 72.1592 101.146C71.3633 101.146 70.6553 101.005 70.0352 100.722C69.4199 100.438 68.9365 100.016 68.585 99.4546C68.2383 98.8931 68.0649 98.2021 68.0649 97.3818V90.3359H70.2622V97.3818C70.2622 97.8604 70.3379 98.251 70.4893 98.5537C70.6406 98.8564 70.8579 99.0786 71.1411 99.2202C71.4292 99.3618 71.7686 99.4326 72.1592 99.4326C72.5596 99.4326 72.8989 99.3618 73.1772 99.2202C73.4604 99.0786 73.6753 98.8564 73.8218 98.5537C73.9731 98.251 74.0488 97.8604 74.0488 97.3818V90.3359ZM80.0254 94.5986V104.047H77.916V93.0752H79.8716L80.0254 94.5986ZM85.0425 96.9497V97.1035C85.0425 97.6797 84.9741 98.2144 84.8374 98.7075C84.7056 99.2007 84.5103 99.6304 84.2515 99.9966C83.9927 100.358 83.6704 100.641 83.2847 100.846C82.9038 101.046 82.4644 101.146 81.9663 101.146C81.4829 101.146 81.063 101.049 80.7065 100.854C80.3501 100.658 80.0498 100.385 79.8057 100.033C79.5664 99.6768 79.3735 99.2642 79.2271 98.7954C79.0806 98.3267 78.9683 97.8237 78.8901 97.2866V96.8838C78.9683 96.3076 79.0806 95.7803 79.2271 95.3018C79.3735 94.8184 79.5664 94.4009 79.8057 94.0493C80.0498 93.6929 80.3477 93.417 80.6992 93.2217C81.0557 93.0264 81.4731 92.9287 81.9517 92.9287C82.4546 92.9287 82.8965 93.0239 83.2773 93.2144C83.6631 93.4048 83.9854 93.6782 84.2441 94.0347C84.5078 94.3911 84.7056 94.8159 84.8374 95.3091C84.9741 95.8022 85.0425 96.3491 85.0425 96.9497ZM82.9258 97.1035V96.9497C82.9258 96.6128 82.8965 96.3027 82.8379 96.0195C82.7842 95.7314 82.6963 95.48 82.5742 95.2651C82.457 95.0503 82.3008 94.8843 82.1055 94.7671C81.915 94.645 81.6831 94.584 81.4097 94.584C81.1216 94.584 80.875 94.6304 80.6699 94.7231C80.4697 94.8159 80.3062 94.9502 80.1792 95.126C80.0522 95.3018 79.957 95.5117 79.8936 95.7559C79.8301 96 79.791 96.2759 79.7764 96.5835V97.6016C79.8008 97.9629 79.8691 98.2876 79.9814 98.5757C80.0938 98.8589 80.2671 99.0835 80.5015 99.2495C80.7358 99.4155 81.0435 99.4985 81.4243 99.4985C81.7026 99.4985 81.937 99.4375 82.1274 99.3154C82.3179 99.1885 82.4717 99.0151 82.5889 98.7954C82.7109 98.5757 82.7964 98.3218 82.8452 98.0337C82.8989 97.7456 82.9258 97.4355 82.9258 97.1035Z" fill="#FF0000"/>
</svg>
