<svg width="41" height="39" viewBox="0 0 41 39" fill="none" xmlns="http://www.w3.org/2000/svg">
<path d="M40.5 19.3742C40.5 29.7719 31.5727 38.2484 20.5 38.2484C9.42732 38.2484 0.5 29.7719 0.5 19.3742C0.5 8.97651 9.42732 0.5 20.5 0.5C31.5727 0.5 40.5 8.97651 40.5 19.3742Z" fill="white" stroke="white"/>
<path d="M24.4351 20.8512H23.7124L23.4563 20.6178C24.3838 19.6011 24.8935 18.3031 24.8925 16.9607C24.8925 15.8492 24.5438 14.7627 23.8904 13.8385C23.237 12.9144 22.3083 12.1941 21.2218 11.7687C20.1353 11.3434 18.9397 11.2321 17.7862 11.4489C16.6327 11.6658 15.5732 12.201 14.7416 12.9869C13.91 13.7728 13.3437 14.7742 13.1143 15.8643C12.8848 16.9544 13.0026 18.0844 13.4526 19.1112C13.9027 20.1381 14.6648 21.0158 15.6427 21.6333C16.6206 22.2508 17.7702 22.5804 18.9463 22.5804C20.4191 22.5804 21.773 22.0703 22.8159 21.223L23.0629 21.4651V22.1481L27.6369 26.4623L29 25.1741L24.4351 20.8512ZM18.9463 20.8512C16.6684 20.8512 14.8296 19.1134 14.8296 16.9607C14.8296 14.8079 16.6684 13.0701 18.9463 13.0701C21.2241 13.0701 23.0629 14.8079 23.0629 16.9607C23.0629 19.1134 21.2241 20.8512 18.9463 20.8512Z" fill="black"/>
</svg>
