<?xml version="1.0" encoding="utf-8"?>
<!-- Generator: Adobe Illustrator 23.0.1, SVG Export Plug-In . SVG Version: 6.00 Build 0)  -->
<svg version="1.1" id="Layer_1" xmlns="http://www.w3.org/2000/svg" xmlns:xlink="http://www.w3.org/1999/xlink" x="0px" y="0px"
	 viewBox="0 0 326.48 135.13" style="enable-background:new 0 0 326.48 135.13;" xml:space="preserve">
<style type="text/css">
	.st0{fill:#3A8739;}
	.st1{fill:none;}
	.st2{fill:#FFFFFF;}
</style>
<rect x="0" y="0" class="st0" width="326.48" height="135.13"/>
<polygon class="st1" points="204.36,59.08 206.49,57.93 180.68,51.52 "/>
<polygon class="st1" points="214.53,53.61 218.67,51.39 185.64,51.39 "/>
<polygon class="st1" points="200.29,61.27 201.99,60.35 180.09,51.98 "/>
<polygon class="st1" points="183.39,51.64 209.08,56.54 211.41,55.29 "/>
<polygon class="st1" points="277.36,70.48 282.24,67.3 214.13,58.42 "/>
<polygon class="st1" points="266.95,77.27 271.67,74.19 206.93,58.11 "/>
<polygon class="st1" points="257.62,83.35 261.53,80.81 205.35,59.33 "/>
<polygon class="st1" points="220.13,57.76 288.76,63.04 296.86,57.76 "/>
<g>
	<path class="st2" d="M173.23,68.89c0.04-0.83,0.08-1.65,0.11-2.49c1.06-0.42,1.48-0.96,1.65-1.38c0.26-0.59,0.03-0.89,0.31-1.76
		c0.25-0.82,0.58-0.97,0.88-1.65c0.23-0.52,0.42-1.33,0.19-2.51c-1.6-0.25-3.21-0.51-4.81-0.76c-0.37,1.4-0.73,2.79-1.11,4.2
		c-0.19,0.3-0.51,0.69-0.95,0.73c-0.65,0.07-1.19-0.62-1.82-1.43c-0.33-0.43-2.16-2.73-2.46-3.14c-0.63-0.91-1.6-2.18-3.01-3.58
		c0.62-0.57,1.26-1.14,1.93-1.71c1.68-1.43,2.14-1.61,2.9-2.35c0.52-0.5,1.81-1.79,2.46-3.8c0.86-2.68,0.06-4.99-0.11-5.47
		c-0.96-2.63-2.94-3.94-3.67-4.41c-2.55-1.64-5.14-1.54-6.43-1.49c-0.9,0.03-2.12,0.1-3.56,0.72c-1.9,0.82-2.99,2.12-3.53,2.79
		c-0.67,0.82-1.75,2.14-2.07,4.13c-0.38,2.34,0.5,4.19,1.02,5.3c0.85,1.81,2.02,3.03,2.84,3.75c0.27,0.42,0.56,0.99,0.36,1.46
		c-0.21,0.49-0.8,0.6-1.74,1c0,0-0.33,0.14-2.21,1.24c-1.98,1.17-3.23,2.92-3.47,3.26c-0.27,0.38-1.6,2.35-1.93,5.29
		c-0.31,2.76,0.43,4.85,0.63,5.38c0.97,2.56,2.6,4.03,3.29,4.63c0.32,0.29,1.92,1.68,4.49,2.54c2.46,0.83,4.5,0.75,5.66,0.69
		c1.02-0.05,3.08-0.18,5.49-1.22c2.86-1.24,4.69-3.13,5.65-4.3c1.84,1.74,3.68,3.47,5.52,5.21c1.08-1.1,2.17-2.2,3.25-3.31
		C177.07,72.59,175.15,70.74,173.23,68.89z M155.82,42.68c0.9-1.43,2.49-1.73,2.98-1.82c0.12-0.03,2.87-0.5,4.69,1.48
		c0.22,0.24,1.46,1.6,1.22,3.32c-0.12,0.78-0.59,1.38-1.54,2.53c-1.43,1.74-2.27,2.75-3.36,2.71c-0.67-0.03-1.13-0.46-2.05-1.33
		c-0.89-0.84-1.94-1.83-2.31-3.47C155.3,45.49,154.97,44.03,155.82,42.68z M162.5,71.93c-0.96,0.46-3.52,1.68-6.51,0.77
		c-0.38-0.12-2.22-0.71-3.75-2.49c-0.54-0.62-2.06-2.38-1.99-4.85c0.07-2.33,1.52-3.9,2.6-5.07c1.61-1.75,3.39-2.62,4.47-3.03
		c3.11,3.71,6.21,7.43,9.32,11.14C165.98,69.33,164.67,70.89,162.5,71.93z"/>
	<g>
		<path class="st2" d="M28.64,29.47c2.11,0.09,4.23,0.18,6.34,0.28c-1.07,4.87-2.13,9.75-3.2,14.62c2.5-4.95,5-9.89,7.5-14.84
			c1.95-0.06,3.9-0.11,5.85-0.17c-0.7,5.04-1.4,10.08-2.1,15.12c2.34-5,4.67-10,7.01-15.01c1.84,0.09,3.68,0.18,5.52,0.28
			c-3.7,7.43-7.39,14.86-11.09,22.29c-2.56-0.06-5.11-0.11-7.67-0.17c0.87-4.46,1.74-8.93,2.61-13.39c-2.3,4.5-4.61,9-6.91,13.5
			c-2.43-0.02-4.86-0.04-7.28-0.06C26.36,44.44,27.5,36.96,28.64,29.47z"/>
		<path class="st2" d="M57.11,29.86c2.1,0.09,4.19,0.18,6.29,0.28c-2.43,7.17-4.86,14.34-7.28,21.52c-2.32-0.02-4.63-0.05-6.95-0.07
			C51.81,44.34,54.46,37.1,57.11,29.86z"/>
		<path class="st2" d="M59.17,51.65c2.4-7.32,4.81-14.64,7.21-21.96c2.35,0.04,4.71,0.07,7.06,0.11c0.04,3.97,0.07,7.94,0.11,11.92
			c1.36-4.01,2.72-8.02,4.08-12.03c2.02,0,4.05,0,6.07,0c-2.35,7.39-4.71,14.79-7.06,22.18c-2.51,0.06-5.03,0.12-7.54,0.18
			c0.15-4.18,0.29-8.36,0.44-12.54c-1.48,4.17-2.97,8.34-4.45,12.51C63.11,51.9,61.14,51.77,59.17,51.65z"/>
		<path class="st2" d="M91.39,43.34c0.34-1.07,0.69-2.13,1.03-3.2c2.4,0,4.81,0,7.21,0c0.21,0.17,0.53,0.48,0.66,0.96
			c0.22,0.83-0.24,1.82-1.18,2.43c-0.71,1.74-1.42,3.48-2.13,5.22c0.15,0.37,0.54,1.51,0,2.28C96.29,52,94.35,52,93.16,51.49
			c-0.32-0.14-0.76-0.39-1.49-0.55c-0.93-0.21-1.29-0.06-1.41,0c-0.49,0.24-0.68,0.74-0.77,0.91c-0.35,0.64-1.87,1.06-7.06,0.03
			c-0.55-0.6-1.23-1.55-1.43-2.81c-0.14-0.88,0.05-1.33,0.66-3.81c0.77-3.1,0.61-2.97,1.1-4.58c0.11-0.35,0.54-1.75,1.27-3.53
			c0.55-1.35,0.83-2.02,1.32-2.87c0.45-0.77,1.16-1.98,2.37-3.03c1.93-1.68,4.08-2.06,5.19-2.26c2.92-0.52,5.1,0.17,5.57,0.33
			c0.96,0.32,1.87,0.64,2.59,1.54c0.92,1.16,0.93,2.52,0.94,3.14c0.01,1.39-0.46,2.46-0.77,3.03c-1.95-0.06-3.9-0.11-5.85-0.17
			c0.09-0.14,0.73-1.2,0.28-2.26c-0.06-0.14-0.4-0.92-1.1-1.05c-0.19-0.04-0.6-0.05-1.27,0.44c-1.08,0.8-1.54,1.95-1.77,2.54
			c-0.89,2.33-1.51,4.14-1.6,4.41c-0.19,0.57-1.03,3.01-1.35,5.23c-0.07,0.46-0.19,1.48,0.35,1.92c0.14,0.11,0.29,0.16,0.41,0.19
			c0.78,0.23,1.51-0.17,1.69-0.28c0.91-0.51,1.21-1.41,1.25-1.55C92.62,45.42,92.26,44.21,91.39,43.34z"/>
		<path class="st2" d="M101.85,45.75c1.67-0.07,3.35-0.15,5.02-0.22c-0.47,0.95-0.34,2,0.28,2.59c0.58,0.56,1.37,0.51,1.54,0.5
			c0.9-0.06,1.7-0.66,2.04-1.49c0.35-0.84,0.08-1.62,0-1.82c-1.82-0.92-3.64-1.84-5.46-2.76c-0.49-0.46-1.49-1.54-1.82-3.2
			c-0.44-2.2,0.6-3.96,1.16-4.91c0.99-1.68,2.28-2.59,3.09-3.14c0.51-0.35,2.35-1.56,5.1-1.99c1.35-0.21,3.13-0.48,5.1,0.33
			c0.66,0.27,2.03,0.86,2.9,2.29c0.25,0.42,0.7,1.18,0.66,2.23c-0.01,0.19-0.09,1.75-1.35,2.7c-1.41,1.06-3.31,0.62-4.33,0
			c-1.02-0.62-1.68-1.57-1.68-1.57c-0.47-0.67-0.54-1.11-1.02-1.3c-0.54-0.21-1.22,0.02-1.63,0.41c-0.67,0.64-0.53,1.62-0.5,1.82
			c0.22,1.48,1.75,2.33,2.12,2.54c1.31,0.72,1.88,0.31,3.39,1.19c0.49,0.28,0.97,0.56,1.41,1.1c1.1,1.36,0.89,3.13,0.83,3.7
			c-0.21,1.81-1.16,3.02-1.99,4.06c-1.06,1.34-2.15,2.11-2.59,2.4c-1.85,1.23-3.58,1.56-4.69,1.77c-2.06,0.38-3.64,0.2-4.05,0.15
			c-1.66-0.21-3.24-0.4-4.3-1.67c-0.23-0.28-0.89-1.15-0.91-2.4C100.13,47.11,101.65,45.9,101.85,45.75z"/>
	</g>
	<g>
		<path class="st2" d="M301.93,42.97c-2.74,0-4.96,2.22-4.96,4.96s2.22,4.96,4.96,4.96c2.74,0,4.96-2.22,4.96-4.96
			S304.67,42.97,301.93,42.97z M300.73,44.62c0.3-0.36,0.77-0.37,1.4-0.39c0.48-0.01,0.78-0.03,1.08,0.19
			c0.39,0.28,0.47,0.73,0.47,0.76c0.01,0.1,0.03,0.3-0.05,0.52c-0.18,0.5-0.68,0.69-0.76,0.72c-0.57,0-1.13,0-1.7,0.01
			c-0.07-0.04-0.56-0.34-0.65-0.93C300.52,45.4,300.46,44.96,300.73,44.62z M300.49,48.81c-0.04,0.07-0.35,0.56-0.94,0.63
			c-0.09,0.01-0.52,0.06-0.86-0.21c-0.35-0.3-0.36-0.76-0.37-1.39c-0.01-0.47-0.01-0.77,0.21-1.06c0.29-0.38,0.73-0.45,0.76-0.45
			c0.1-0.01,0.3-0.03,0.52,0.05c0.5,0.18,0.68,0.68,0.71,0.76C300.51,47.7,300.5,48.26,300.49,48.81z M303.68,50.7
			c0,0.03-0.08,0.47-0.47,0.75c-0.3,0.21-0.6,0.2-1.08,0.19c-0.63-0.02-1.11-0.03-1.4-0.39c-0.27-0.34-0.21-0.78-0.19-0.86
			c0.09-0.6,0.58-0.89,0.65-0.93c0.56,0,1.13,0,1.7,0.01c0.08,0.03,0.58,0.21,0.76,0.71C303.72,50.4,303.7,50.61,303.68,50.7z
			 M305.17,49.23c-0.33,0.27-0.77,0.21-0.85,0.21c-0.6-0.08-0.91-0.56-0.95-0.63c-0.01-0.55-0.01-1.11-0.02-1.66
			c0.03-0.08,0.21-0.58,0.7-0.76c0.23-0.08,0.43-0.07,0.53-0.05c0.03,0,0.47,0.07,0.76,0.45c0.22,0.29,0.21,0.59,0.21,1.06
			C305.53,48.47,305.52,48.94,305.17,49.23z"/>
		<path class="st2" d="M235.47,51.38c2.4-7.32,4.81-14.64,7.21-21.96c2.35,0.04,4.71,0.07,7.06,0.11c0.04,3.97,0.07,7.94,0.11,11.92
			c1.36-4.01,2.72-8.02,4.08-12.03c2.02,0,4.05,0,6.07,0c-2.35,7.39-4.71,14.79-7.06,22.18c-2.51,0.06-5.03,0.12-7.54,0.18
			c0.15-4.18,0.29-8.36,0.44-12.54c-1.48,4.17-2.97,8.34-4.45,12.51C239.42,51.62,237.45,51.5,235.47,51.38z"/>
		<path class="st2" d="M267.7,43.06c0.34-1.07,0.69-2.13,1.03-3.2c2.4,0,4.81,0,7.21,0c0.21,0.17,0.53,0.48,0.66,0.96
			c0.22,0.83-0.24,1.82-1.18,2.43c-0.71,1.74-1.42,3.48-2.13,5.22c0.15,0.37,0.54,1.51,0,2.28c-0.69,0.98-2.63,0.97-3.82,0.46
			c-0.32-0.14-0.76-0.39-1.49-0.55c-0.93-0.21-1.29-0.06-1.41,0c-0.49,0.24-0.68,0.74-0.77,0.91c-0.35,0.64-1.87,1.06-7.06,0.03
			c-0.55-0.6-1.23-1.55-1.43-2.81c-0.14-0.88,0.05-1.33,0.66-3.81c0.77-3.1,0.61-2.97,1.1-4.58c0.11-0.35,0.54-1.75,1.27-3.53
			c0.55-1.35,0.83-2.02,1.32-2.87c0.45-0.77,1.16-1.98,2.37-3.03c1.93-1.68,4.08-2.06,5.19-2.26c2.92-0.52,5.1,0.17,5.57,0.33
			c0.96,0.32,1.87,0.64,2.59,1.54c0.92,1.16,0.93,2.52,0.94,3.14c0.01,1.39-0.46,2.46-0.77,3.03c-1.95-0.06-3.9-0.11-5.85-0.17
			c0.09-0.14,0.73-1.2,0.28-2.26c-0.06-0.14-0.4-0.92-1.1-1.05c-0.19-0.04-0.6-0.05-1.27,0.44c-1.08,0.8-1.54,1.95-1.77,2.54
			c-0.89,2.33-1.51,4.14-1.6,4.41c-0.19,0.57-1.03,3.01-1.35,5.23c-0.07,0.46-0.19,1.48,0.35,1.92c0.14,0.11,0.29,0.16,0.41,0.19
			c0.78,0.23,1.51-0.17,1.69-0.28c0.91-0.51,1.21-1.41,1.25-1.55C268.93,45.14,268.57,43.93,267.7,43.06z"/>
		<path class="st2" d="M278.16,45.47c1.67-0.07,3.35-0.15,5.02-0.22c-0.47,0.95-0.34,2,0.28,2.59c0.58,0.56,1.37,0.51,1.54,0.5
			c0.9-0.06,1.7-0.66,2.04-1.49c0.35-0.84,0.08-1.62,0-1.82c-1.82-0.92-3.64-1.84-5.46-2.76c-0.49-0.46-1.49-1.54-1.82-3.2
			c-0.44-2.2,0.6-3.96,1.16-4.91c0.99-1.68,2.28-2.59,3.09-3.14c0.51-0.35,2.35-1.56,5.1-1.99c1.35-0.21,3.13-0.48,5.1,0.33
			c0.66,0.27,2.03,0.86,2.9,2.29c0.25,0.42,0.7,1.18,0.66,2.23c-0.01,0.19-0.09,1.75-1.35,2.7c-1.41,1.06-3.31,0.62-4.33,0
			c-1.02-0.62-1.68-1.57-1.68-1.57c-0.47-0.67-0.54-1.11-1.02-1.3c-0.54-0.21-1.22,0.02-1.63,0.41c-0.67,0.64-0.53,1.62-0.5,1.82
			c0.22,1.48,1.75,2.33,2.12,2.54c1.31,0.72,1.88,0.31,3.39,1.19c0.49,0.28,0.97,0.56,1.41,1.1c1.1,1.36,0.89,3.13,0.83,3.7
			c-0.21,1.81-1.16,3.02-1.99,4.06c-1.06,1.34-2.15,2.11-2.59,2.4c-1.85,1.23-3.58,1.56-4.69,1.77c-2.06,0.38-3.64,0.2-4.05,0.15
			c-1.66-0.21-3.24-0.4-4.3-1.67c-0.23-0.28-0.89-1.15-0.91-2.4C276.44,46.84,277.96,45.62,278.16,45.47z"/>
		<path class="st2" d="M189.38,50.77c2.24,0.22,4.49,0.44,6.73,0.66c2.46-5.66,4.93-11.33,7.39-16.99c1.43,0.04,2.87,0.07,4.3,0.11
			c0.59-1.62,1.18-3.24,1.77-4.86c-5.37,0-10.74,0-16.11,0c-0.83,1.64-1.67,3.29-2.5,4.93c1.67,0.05,3.35,0.1,5.02,0.15
			C193.78,40.1,191.58,45.43,189.38,50.77z"/>
		<path class="st2" d="M203.28,51.38c2.94-7.37,5.88-14.75,8.83-22.12c2.28,0.15,4.56,0.29,6.84,0.44
			c-0.88,2.43-1.77,4.86-2.65,7.28c0.31,0.24,0.93,0.65,1.66,0.55c0.83-0.11,1.36-0.82,1.77-1.43c1.45-2.2,2.49-5.06,2.98-6.51
			c2.24,0,4.49,0,6.73,0c-2.61,7.28-5.22,14.57-7.83,21.85c-2.54,0.07-5.08,0.15-7.61,0.22c1.1-2.83,2.21-5.66,3.31-8.5
			c-0.14-0.11-1.01-0.76-2.21-0.55c-1.07,0.19-1.64,0.94-1.77,1.1c-0.96,2.61-1.91,5.22-2.87,7.83
			C208.07,51.49,205.68,51.43,203.28,51.38z"/>
		<path class="st2" d="M224.19,51.82c2.89-7.23,5.77-14.46,8.66-21.68c2.26,0.13,4.52,0.26,6.79,0.39
			c-2.78,7.08-5.55,14.16-8.33,21.24C228.94,51.78,226.57,51.8,224.19,51.82z"/>
	</g>
	<g>
		<path class="st2" d="M151.96,83.42c-0.55-1.63-2.31-2.33-3.53-2.79c-2.43-0.93-4.59-0.79-6.1-0.67
			c-4.43,0.36-6.65,0.55-10.75,1.48c-2.64,0.6-6.14,1.52-10.21,2.95c-0.54,0.36-0.8,1.02-0.63,1.6c0.2,0.71,0.91,0.95,0.97,0.96
			c4.34-1.28,8.68-2.55,13.02-3.83c0.91-0.51,1.8-0.32,1.98,0.05c0.19,0.36-0.16,1.17-1.07,1.63c-2.97,2.54-5.94,5.07-8.91,7.61
			c-0.17,0.3-0.49,0.73-1.02,0.97c-0.62,0.26-1.24,0.12-2.01-0.06c-1.15-0.27-1.41-0.62-2.18-0.52c-0.24,0.03-0.63,0.09-0.94,0.38
			c-0.65,0.63-0.36,1.74-0.33,1.83c0.35,0.03,1.67,0.17,1.87,0.85c0.17,0.58-0.56,1.27-0.89,1.57c-1.52,1.43-4.18,4.07-7.74,7.61
			c-0.01,0.08-0.05,0.84,0.51,1.33c0.51,0.43,1.28,0.47,1.91,0.07c3.82-3.63,7.66-7.26,11.48-10.88c1.84,0.17,4.41,0.25,7.43-0.23
			c2.32-0.36,3.93-0.89,6.32-1.69c3.11-1.04,5-1.68,7.14-3.23c2.09-1.52,2.84-2.78,3.23-3.68C151.85,85.95,152.4,84.7,151.96,83.42z
			 M148.13,87.61c-1.48,1.51-3.45,2.6-9.16,4.09c-1.53,0.4-3.66,0.91-6.25,1.4c-0.25,0.01-0.97,0.01-1.22-0.41
			c-0.22-0.36,0.01-0.87,0.11-1.07c0.74-1.59,9.03-8.04,10.7-9.34c1.41-0.28,3.6-0.46,5.73,0.55c1.43,0.67,1.65,1.33,1.7,1.47
			C150.13,85.55,148.78,86.96,148.13,87.61z"/>
		<path class="st2" d="M171.11,93.94c-1.17-0.76-2.86-0.57-4.09,0.52c-0.97,0.45-2.44,1.16-4.17,2.18
			c-2.94,1.74-2.92,2.18-5.68,3.78c-3.19,1.84-4.79,2.76-5.66,3.01c-0.74,0.21-2.07,0.53-2.2,1.27c-0.07,0.37,0.18,0.79,0.49,0.99
			c0.56,0.36,1.33,0.04,2.49-0.49c2.41-1.13,3.58-1.82,3.58-1.82c2.84-1.68,2.37-1.27,3.86-2.2c2.35-1.48,3.52-2.21,4.63-3.15
			c0.43-0.36,1.53-1.3,3.2-1.82c1.03-0.32,1.31-0.18,1.43-0.05c0.44,0.44-0.13,1.74-0.66,2.54c-1.35,2.01-3.76,2.64-4.33,2.79
			c-1.51,0.39-2.45,0.44-2.45,0.44c-1.01,0.05-1.57-0.08-2.16,0.33c-0.55,0.38-0.74,0.97-0.82,1.22c-0.34,0.99-0.01,1.86,0.11,2.12
			c-0.74,0.24-1.72,0.58-2.84,1.08c-0.86,0.38-1.72,0.76-2.76,1.41c-1.57,0.98-2.57,1.97-3.23,2.62c-1.28,1.28-1.93,1.94-2.04,2.81
			c-0.12,0.87,0.15,1.99,0.93,2.62c1.18,0.95,2.99,0.34,4.39-0.14c1.75-0.6,2.91-1.46,5.16-3.17c0.85-0.65,2.06-1.7,4.47-3.8
			c2.64-2.31,3.45-3.08,3.76-4.41c0.22-0.99,0.08-1.87-0.08-2.46c0.05-0.17,0.19-0.57,0.58-0.88c0.65-0.52,1.43-0.36,1.54-0.34
			c0.55-0.35,1.33-0.91,2.12-1.74c1.07-1.11,1.78-1.84,1.77-2.9C172.45,95.32,171.86,94.43,171.11,93.94z M160.32,108.01
			c-0.53,0.73-1.06,1.13-1.96,1.79c-1.65,1.21-2.47,1.81-2.81,2.04c-2.05,1.37-2.76,1.64-3.29,1.8c-0.57,0.17-1.75,0.52-2.04,0.11
			c-0.34-0.49,0.73-1.75,0.94-1.99c0.59-0.69,1.11-1.04,2.79-2.07c1.86-1.14,2.82-1.72,3.89-2.29c0.92-0.49,1.71-0.87,2.29-1.13
			c0.32-0.12,0.7-0.2,0.85-0.03C161.31,106.61,160.4,107.89,160.32,108.01z"/>
		<path class="st2" d="M188.99,93.94c-1.17-0.76-2.86-0.57-4.09,0.52c-0.97,0.45-2.44,1.16-4.17,2.18
			c-2.94,1.74-2.92,2.18-5.68,3.78c-3.19,1.84-4.79,2.76-5.66,3.01c-0.74,0.21-2.07,0.53-2.2,1.27c-0.07,0.37,0.18,0.79,0.49,0.99
			c0.56,0.36,1.33,0.04,2.49-0.49c2.41-1.13,3.58-1.82,3.58-1.82c2.84-1.68,2.37-1.27,3.86-2.2c2.35-1.48,3.52-2.21,4.63-3.15
			c0.43-0.36,1.53-1.3,3.2-1.82c1.03-0.32,1.32-0.18,1.43-0.05c0.44,0.44-0.13,1.74-0.66,2.54c-1.35,2.01-3.76,2.64-4.33,2.79
			c-1.51,0.39-2.45,0.44-2.45,0.44c-1.01,0.05-1.57-0.08-2.16,0.33c-0.55,0.38-0.74,0.97-0.82,1.22c-0.34,0.99-0.01,1.86,0.11,2.12
			c-0.74,0.24-1.72,0.58-2.84,1.08c-0.86,0.38-1.72,0.76-2.76,1.41c-1.57,0.98-2.57,1.97-3.23,2.62c-1.28,1.28-1.93,1.94-2.04,2.81
			c-0.12,0.87,0.15,1.99,0.93,2.62c1.18,0.95,2.99,0.34,4.39-0.14c1.75-0.6,2.91-1.46,5.16-3.17c0.85-0.65,2.06-1.7,4.47-3.8
			c2.64-2.31,3.45-3.08,3.76-4.41c0.22-0.99,0.08-1.87-0.08-2.46c0.05-0.17,0.19-0.57,0.58-0.88c0.65-0.52,1.43-0.36,1.54-0.34
			c0.55-0.35,1.33-0.91,2.12-1.74c1.07-1.11,1.78-1.84,1.77-2.9C190.34,95.32,189.75,94.43,188.99,93.94z M178.2,108.01
			c-0.53,0.73-1.06,1.13-1.96,1.79c-1.65,1.21-2.47,1.81-2.81,2.04c-2.05,1.37-2.76,1.64-3.29,1.8c-0.56,0.17-1.75,0.52-2.04,0.11
			c-0.34-0.49,0.73-1.75,0.94-1.99c0.59-0.69,1.11-1.04,2.79-2.07c1.86-1.14,2.81-1.72,3.89-2.29c0.92-0.49,1.71-0.87,2.29-1.13
			c0.32-0.12,0.7-0.2,0.85-0.03C179.19,106.61,178.29,107.89,178.2,108.01z"/>
		<path class="st2" d="M210.11,94.27c-0.51-0.56-1.5-0.58-2.09,0.08c-0.27-0.34-0.95-1.06-2.06-1.36c-2.09-0.57-3.79,0.89-3.94,1.03
			c-5.48,3.1-10.96,6.2-16.44,9.3c0.23,0.44,0.47,0.88,0.7,1.33c0.36-0.15,0.9-0.38,1.58-0.67c0.8-0.33,1.01-0.41,1.39-0.58
			c0.78-0.36,1-0.55,1.59-0.85c0.48-0.25,1.2-0.57,2.17-0.84c0.17,0.12,0.45,0.36,0.66,0.73c0.31,0.55,0.31,1.07,0.3,1.29
			c1.34,0.13,2.67,0.27,4.01,0.41c-0.01-0.74,0.36-1.41,0.95-1.7c0.62-0.3,1.22-0.08,1.4,0c1.02,0.43,1.17,1.64,1.17,1.7
			c0.96,0.87,2.16,0.96,2.76,0.44c0.46-0.4,0.48-1.07,0.48-1.17c0.01-0.94-0.73-1.49-0.81-1.54c2.06-1.92,4.12-3.83,6.18-5.74
			C210.57,95.54,210.54,94.74,210.11,94.27z M205.91,96.96c-0.48,0.58-0.95,0.89-1.75,1.4c-1.46,0.93-2.18,1.39-2.49,1.56
			c-1.8,1.04-2.42,1.23-2.86,1.33c-0.49,0.11-1.51,0.34-1.73-0.02c-0.25-0.43,0.72-1.43,0.91-1.62c0.54-0.56,1-0.82,2.46-1.59
			c1.63-0.86,2.47-1.3,3.41-1.71c0.8-0.36,1.49-0.63,2-0.82c0.28-0.08,0.6-0.13,0.72,0.02C206.82,95.83,205.99,96.86,205.91,96.96z"
			/>
		<path class="st2" d="M152.25,98.68c-1.8,1.65-3.14,2.18-4.37,3.98c-0.2,0.28-0.69,0.98-0.45,1.43c0.2,0.37,0.73,0.3,0.87,0.67
			c0.13,0.37-0.23,0.87-0.56,1.13c-0.63,0.49-1.57,0.42-2.21,0.08c-0.13-0.07-1.01-0.54-1.08-1.29c-0.01-0.22,0.04-0.45,1.05-2.16
			c0.31-0.51,0.43-0.71,0.36-0.8c-0.12-0.14-0.65,0.13-1.79,0.77c-1.26,0.72-2.2,1.3-2.42,1.43c-0.19,0.12-0.21,0.12-3.34,1.85
			c-1.61,0.88-2.27,1.24-3.06,1.04c-0.19-0.05-0.73-0.19-1.04-0.69c-0.3-0.48-0.22-1.01-0.19-1.16c1.15-0.36,2.82-0.93,4.78-1.81
			c1.8-0.8,4.47-1.99,7.44-4.12c1.61-1.15,3.52-1.89,5-3.2c0.3-0.25,1.06-0.96,1.92-0.8c0.4,0.07,0.89,0.35,1.03,0.77
			C154.45,96.64,153.31,97.71,152.25,98.68z"/>
		<path class="st2" d="M160.4,90.02c-0.21,1.34-2.18,2.2-3.59,1.88c-0.26-0.06-1.08-0.25-1.26-0.89c-0.14-0.47,0.13-0.91,0.22-1.05
			c0.31-0.41,0.89-1.06,1.82-1.43c0.55-0.22,1.51-0.6,2.2-0.11C160.29,88.77,160.49,89.47,160.4,90.02z"/>
	</g>
	<path class="st2" d="M295.58,60.76l8.41-5.49h-108.7c0,0,0,0,0-0.01c-3.17,0.04-6.34,0.09-9.51,0.13c3.2,1.78,6.39,3.57,9.59,5.35
		l0.01,0.01c0.02,0,0.04,0.02,0.06,0.03c0,0,0,0,0.01,0c0,0,0,0,0,0c0,0,0,0,0.01,0l55.14,29.31l5.75-3.75l-52.27-24.02l56.18,21.47
		l5.42-3.54l-60.03-19.16l64.74,16.09l5.69-3.71l-63.22-12.06l68.11,8.88l6.52-4.25l-68.63-5.28H295.58z"/>
	<path class="st2" d="M28.01,60.76l-8.41-5.49h108.7c0,0,0,0,0-0.01c3.17,0.04,6.34,0.09,9.51,0.13c-3.2,1.78-6.39,3.57-9.59,5.35
		l-0.01,0.01c-0.02,0-0.04,0.02-0.06,0.03c0,0,0,0-0.01,0c0,0,0,0,0,0c0,0,0,0-0.01,0L72.99,90.11l-5.75-3.75l52.27-24.02
		L63.34,83.81l-5.42-3.54l60.03-19.16L53.2,77.19l-5.69-3.71l63.22-12.06L42.62,70.3l-6.52-4.25l68.63-5.28H28.01z"/>
</g>
</svg>
